<svg width="256" height="256" viewBox="0 0 256 256" fill="none" xmlns="http://www.w3.org/2000/svg">
  <path d="M238.394 172.053V83.948C238.394 71.247 231.682 59.5079 220.784 53.1308L145.716 9.22102C134.747 2.808 121.235 2.808 110.266 9.22102L35.2158 53.1308C24.3177 59.5079 17.6057 71.247 17.6057 83.948V172.053C17.6057 184.754 24.3177 196.493 35.2158 202.87L110.284 246.78C121.253 253.193 134.765 253.193 145.734 246.78L220.802 202.87C231.7 196.493 238.412 184.754 238.412 172.053H238.394Z" fill="#FFB01A" fill-opacity="0.1" stroke="url(#paint0_linear_115_14)" stroke-width="8" stroke-linecap="round" stroke-linejoin="round" />
  <path d="M146.792 78.8237C144.462 76.3086 139.129 71.9347 131.104 71.9347C123.148 71.9347 117.901 76.1263 115.587 78.5411C115.51 78.6385 114.27 80.2593 115.239 82.6225L129.918 118.448C129.918 118.448 131.228 121.66 132.547 118.448L147.181 82.8044C148.087 80.4333 146.792 78.8237 146.792 78.8237Z" fill="url(#paint1_linear_115_14)" />
  <path d="M107.775 81.338C104.367 81.2229 97.5343 81.9388 91.8595 87.6706C86.2332 93.3532 85.4579 100.063 85.5123 103.423C85.5262 103.547 85.7838 105.579 88.1234 106.558L123.586 121.406C123.586 121.406 126.76 122.743 125.444 119.53L110.837 83.8743C109.818 81.5512 107.775 81.338 107.775 81.338Z" fill="url(#paint2_linear_115_14)" />
  <path d="M83.0177 111.698C80.5271 114.051 76.1968 119.437 76.1968 127.542C76.1968 135.578 80.3466 140.878 82.7375 143.214C82.8341 143.292 84.4389 144.544 86.7789 143.566L122.25 128.739C122.25 128.739 125.43 127.417 122.25 126.085L86.9585 111.305C84.6109 110.39 83.0177 111.698 83.0177 111.698Z" fill="url(#paint3_linear_115_14)" />
  <path d="M85.5187 150.947C85.4051 154.39 86.1137 161.291 91.7884 167.022C97.4147 172.705 104.059 173.488 107.385 173.433C107.508 173.419 109.52 173.159 110.489 170.796L125.191 134.979C125.191 134.979 126.514 131.773 123.333 133.103L88.0296 147.855C85.7294 148.884 85.5187 150.947 85.5187 150.947Z" fill="url(#paint4_linear_115_14)" />
  <path d="M115.555 175.939C117.884 178.454 123.217 182.828 131.242 182.828C139.199 182.828 144.445 178.636 146.759 176.222C146.836 176.125 148.076 174.503 147.107 172.14L132.427 136.315C132.427 136.315 131.118 133.102 129.799 136.315L115.165 171.958C114.26 174.329 115.555 175.939 115.555 175.939Z" fill="url(#paint5_linear_115_14)" />
  <path d="M154.434 173.424C157.843 173.539 164.675 172.824 170.35 167.092C175.977 161.41 176.752 154.699 176.697 151.339C176.683 151.216 176.426 149.184 174.086 148.204L138.624 133.356C138.624 133.356 135.449 132.02 136.766 135.233L151.372 170.888C152.392 173.212 154.434 173.424 154.434 173.424Z" fill="url(#paint6_linear_115_14)" />
  <path d="M179.181 143.197C181.671 140.844 186.001 135.458 186.001 127.352C186.001 119.316 181.851 114.017 179.461 111.681C179.365 111.602 177.759 110.35 175.42 111.328L139.948 126.155C139.948 126.155 136.768 127.477 139.948 128.809L175.24 143.59C177.587 144.505 179.181 143.197 179.181 143.197Z" fill="url(#paint7_linear_115_14)" />
  <path d="M176.69 103.815C176.803 100.373 176.095 93.4717 170.419 87.7403C164.793 82.0577 158.149 81.2746 154.823 81.3299C154.7 81.3435 152.689 81.604 151.719 83.9667L137.018 119.784C137.018 119.784 135.694 122.99 138.876 121.66L174.178 106.908C176.479 105.878 176.69 103.815 176.69 103.815Z" fill="url(#paint8_linear_115_14)" />
  <path d="M156.147 196.869C157.268 199.981 155.684 203.445 152.528 204.341C142.45 207.203 131.889 208.022 121.459 206.729C109.061 205.192 97.1996 200.712 86.8441 193.657C76.4881 186.603 67.9329 177.173 61.877 166.139C55.8211 155.105 52.4371 142.78 52.0011 130.171C51.5651 117.563 54.0899 105.029 59.3689 93.5956C64.6478 82.1616 72.531 72.152 82.3743 64.3849C92.2176 56.6177 103.741 51.3135 116.003 48.9063C126.318 46.8815 136.909 46.9548 147.16 49.0995C150.371 49.7713 152.191 53.1147 151.287 56.2979C150.383 59.4811 147.098 61.2939 143.879 60.665C135.438 59.0165 126.743 59.0137 118.268 60.6774C107.846 62.7239 98.0505 67.2322 89.684 73.8341C81.3172 80.4361 74.6167 88.9448 70.1294 98.6634C65.6421 108.382 63.4961 119.036 63.8669 129.753C64.2373 140.47 67.1138 150.946 72.2612 160.325C77.4089 169.704 84.6809 177.719 93.4833 183.716C102.285 189.713 112.368 193.52 122.906 194.827C131.476 195.889 140.149 195.274 148.456 193.035C151.623 192.181 155.026 193.758 156.147 196.869Z" fill="url(#paint9_linear_115_14)" />
  <defs>
    <linearGradient id="paint0_linear_115_14" x1="17.6057" y1="128" x2="238.541" y2="129.596" gradientUnits="userSpaceOnUse">
      <stop stop-color="#FFAA15" />
      <stop offset="1" stop-color="#FFD534" />
    </linearGradient>
    <linearGradient id="paint1_linear_115_14" x1="51.9527" y1="127.381" x2="186.081" y2="128.291" gradientUnits="userSpaceOnUse">
      <stop stop-color="#FFAA15" />
      <stop offset="1" stop-color="#FFD534" />
    </linearGradient>
    <linearGradient id="paint2_linear_115_14" x1="51.9526" y1="127.381" x2="186.081" y2="128.291" gradientUnits="userSpaceOnUse">
      <stop stop-color="#FFAA15" />
      <stop offset="1" stop-color="#FFD534" />
    </linearGradient>
    <linearGradient id="paint3_linear_115_14" x1="51.9526" y1="127.381" x2="186.081" y2="128.291" gradientUnits="userSpaceOnUse">
      <stop stop-color="#FFAA15" />
      <stop offset="1" stop-color="#FFD534" />
    </linearGradient>
    <linearGradient id="paint4_linear_115_14" x1="51.9527" y1="127.381" x2="186.081" y2="128.291" gradientUnits="userSpaceOnUse">
      <stop stop-color="#FFAA15" />
      <stop offset="1" stop-color="#FFD534" />
    </linearGradient>
    <linearGradient id="paint5_linear_115_14" x1="51.9525" y1="127.381" x2="186.08" y2="128.291" gradientUnits="userSpaceOnUse">
      <stop stop-color="#FFAA15" />
      <stop offset="1" stop-color="#FFD534" />
    </linearGradient>
    <linearGradient id="paint6_linear_115_14" x1="51.9527" y1="127.381" x2="186.081" y2="128.291" gradientUnits="userSpaceOnUse">
      <stop stop-color="#FFAA15" />
      <stop offset="1" stop-color="#FFD534" />
    </linearGradient>
    <linearGradient id="paint7_linear_115_14" x1="51.9527" y1="127.381" x2="186.081" y2="128.291" gradientUnits="userSpaceOnUse">
      <stop stop-color="#FFAA15" />
      <stop offset="1" stop-color="#FFD534" />
    </linearGradient>
    <linearGradient id="paint8_linear_115_14" x1="51.9528" y1="127.381" x2="186.081" y2="128.291" gradientUnits="userSpaceOnUse">
      <stop stop-color="#FFAA15" />
      <stop offset="1" stop-color="#FFD534" />
    </linearGradient>
    <linearGradient id="paint9_linear_115_14" x1="51.9526" y1="127.381" x2="186.081" y2="128.291" gradientUnits="userSpaceOnUse">
      <stop stop-color="#FFAA15" />
      <stop offset="1" stop-color="#FFD534" />
    </linearGradient>
  </defs>
</svg>
