<svg width="256" height="256" viewBox="0 0 256 256" fill="none" xmlns="http://www.w3.org/2000/svg">
  <mask id="mask0_104_2" style="mask-type:luminance" maskUnits="userSpaceOnUse" x="0" y="0" width="256" height="256">
    <path d="M237.065 0H18.9349C8.47743 0 0 8.47743 0 18.9349V237.065C0 247.523 8.47743 256 18.9349 256H237.065C247.523 256 256 247.523 256 237.065V18.9349C256 8.47743 247.523 0 237.065 0Z" fill="white"/>
  </mask>
  <g mask="url(#mask0_104_2)">
    <path d="M256 0H0V256H256V0Z" fill="#F5F5F5"/>
    <path d="M53.748 157.701V152.409H53.603C53.0713 154.245 52.1529 155.792 50.8478 157.049C49.5911 158.305 47.7544 158.934 45.3376 158.934C43.4525 158.934 41.7607 158.426 40.2623 157.411C38.7639 156.396 37.5072 154.994 36.4922 153.206C35.4771 151.369 34.7037 149.243 34.172 146.826C33.6404 144.361 33.3745 141.702 33.3745 138.85C33.3745 136.047 33.6162 133.461 34.0995 131.093C34.6312 128.724 35.4046 126.694 36.4197 125.002C37.4347 123.262 38.6673 121.909 40.1173 120.942C41.6157 119.975 43.3558 119.492 45.3376 119.492C47.3677 119.492 49.0836 120.072 50.4853 121.232C51.8871 122.344 52.8538 123.745 53.3855 125.437H53.603V102.889H61.6506V157.701H53.748ZM53.893 139.213C53.893 137.424 53.748 135.781 53.458 134.283C53.2163 132.736 52.8296 131.407 52.2979 130.295C51.8146 129.135 51.162 128.241 50.3403 127.612C49.5669 126.936 48.6727 126.597 47.6577 126.597C46.5943 126.597 45.6759 126.936 44.9026 127.612C44.1292 128.241 43.5008 129.135 43.0175 130.295C42.5341 131.407 42.1716 132.736 41.9299 134.283C41.6882 135.781 41.5674 137.424 41.5674 139.213C41.5674 140.953 41.6882 142.596 41.9299 144.143C42.1716 145.642 42.5341 146.971 43.0175 148.131C43.5008 149.243 44.1292 150.137 44.9026 150.813C45.6759 151.442 46.5943 151.756 47.6577 151.756C48.7211 151.756 49.6395 151.442 50.4128 150.813C51.1862 150.137 51.8146 149.243 52.2979 148.131C52.8296 146.971 53.2163 145.642 53.458 144.143C53.748 142.596 53.893 140.953 53.893 139.213ZM71.5908 141.316C71.5908 142.766 71.7358 144.143 72.0258 145.448C72.3158 146.705 72.7267 147.817 73.2584 148.783C73.8384 149.702 74.5151 150.451 75.2884 151.031C76.1102 151.563 77.0527 151.829 78.1161 151.829C79.6145 151.829 80.7987 151.345 81.6688 150.378C82.5871 149.412 83.3122 148.3 83.8439 147.043L89.8616 150.523C88.7983 153.085 87.2757 155.139 85.2939 156.686C83.3605 158.185 80.8712 158.934 77.8261 158.934C73.5242 158.934 70.0682 157.242 67.4581 153.859C64.848 150.475 63.5429 145.617 63.5429 139.285C63.5429 136.337 63.8812 133.654 64.5579 131.238C65.2346 128.772 66.2014 126.67 67.4581 124.93C68.7148 123.19 70.189 121.86 71.8808 120.942C73.6209 119.975 75.5543 119.492 77.6811 119.492C80.0495 119.492 82.0554 119.975 83.6988 120.942C85.3906 121.909 86.744 123.238 87.759 124.93C88.8224 126.573 89.5958 128.531 90.0791 130.803C90.5625 133.074 90.8042 135.539 90.8042 138.198V141.316H71.5908ZM82.9738 135.37C82.9738 132.615 82.5388 130.392 81.6688 128.7C80.7987 126.96 79.4453 126.09 77.6086 126.09C76.5452 126.09 75.6268 126.404 74.8534 127.032C74.1284 127.661 73.5242 128.458 73.0408 129.425C72.6058 130.343 72.2675 131.358 72.0258 132.47C71.7841 133.533 71.6633 134.5 71.6633 135.37H82.9738ZM115.69 142.766C115.69 147.889 114.603 151.877 112.428 154.729C110.301 157.58 106.942 159.006 102.35 159.006C99.0146 159.006 96.2595 158.112 94.0844 156.324C91.9093 154.487 90.4592 152.046 89.7342 149.001L96.9845 145.883C97.2745 147.14 97.8304 148.3 98.6521 149.363C99.5221 150.378 100.658 150.886 102.06 150.886C104.042 150.886 105.371 150.088 106.047 148.493C106.724 146.898 107.062 144.723 107.062 141.968V106.369H115.69V142.766ZM145.728 157.701L143.19 146.826H129.705L127.095 157.701H118.394L131.155 106.369H142.248L154.791 157.701H145.728ZM136.665 114.562H136.375L130.792 140.01H142.103L136.665 114.562ZM180.955 157.701L178.417 146.826H164.932L162.322 157.701H153.621L166.382 106.369H177.475L190.018 157.701H180.955ZM171.892 114.562H171.602L166.019 140.01H177.33L171.892 114.562ZM216.181 157.701L213.644 146.826H200.158L197.548 157.701H188.848L201.608 106.369H212.701L225.244 157.701H216.181ZM207.118 114.562H206.828L201.246 140.01H212.556L207.118 114.562Z" fill="#252B34"/>
  </g>
</svg>
