<?xml version="1.0" encoding="UTF-8" standalone="no"?>
<svg
   width="256"
   height="256"
   viewBox="0 0 100 100"
   version="1.1"
   id="svg18"
   xmlns="http://www.w3.org/2000/svg"
   xmlns:svg="http://www.w3.org/2000/svg">
  <defs
     id="defs4">
    <style
       id="style1">
            /* Neon glow on the arcs */
			.snek { filter: url(#neonGlow); }

			/* Chromatic aberration on the whole scene */
			#scene { filter: url(#chrAber); }
        </style>
    <filter
       id="neonGlow"
       x="-0.1225"
       y="-0.23999999"
       width="1.245"
       height="1.48">
      <feGaussianBlur
         in="SourceGraphic"
         stdDeviation="1.8"
         result="blur"
         id="feGaussianBlur1">
      </feGaussianBlur>
      <feBlend
         in="SourceGraphic"
         in2="blur"
         mode="screen"
         id="feBlend1" />
    </filter>
    <filter
       id="chrAber"
       x="-0.069828286"
       y="-0.06122449"
       width="1.1396566"
       height="1.122449">
      <feColorMatrix
         type="matrix"
         in="SourceGraphic"
         values="1 0 0 0 0  0 0 0 0 0  0 0 0 0 0  0 0 0 1 0"
         result="rChan"
         id="feColorMatrix1" />
      <feOffset
         dx="-1.2"
         dy="0.3"
         in="rChan"
         result="rShift"
         id="feOffset1" />
      <feColorMatrix
         type="matrix"
         in="SourceGraphic"
         values="0 0 0 0 0  0 1 0 0 0  0 0 0 0 0  0 0 0 1 0"
         result="gChan"
         id="feColorMatrix2" />
      <feColorMatrix
         type="matrix"
         in="SourceGraphic"
         values="0 0 0 0 0  0 0 0 0 0  0 0 1 0 0  0 0 0 1 0"
         result="bChan"
         id="feColorMatrix3" />
      <feOffset
         dx="1.2"
         dy="-0.3"
         in="bChan"
         result="bShift"
         id="feOffset3" />
      <feBlend
         mode="screen"
         in="rShift"
         in2="gChan"
         result="rg"
         id="feBlend3" />
      <feBlend
         mode="screen"
         in="rg"
         in2="bShift"
         id="feBlend4" />
    </filter>
    <pattern
       id="scanlinesPat"
       x="0"
       y="0"
       width="100"
       height="3"
       patternUnits="userSpaceOnUse">
      <rect
         width="100"
         height="1"
         fill="black"
         opacity="0.25"
         id="rect4" />
    </pattern>
    <filter
       style="color-interpolation-filters:sRGB"
       id="filter4"
       x="-0.0082642676"
       y="-0.032620883"
       width="1.0165285"
       height="1.0652418">
      <feGaussianBlur
         stdDeviation="0.00043998008"
         id="feGaussianBlur4" />
    </filter>
  </defs>
  <g
     id="scene">
    <rect
       x="-500"
       y="-500"
       width="1000"
       height="1000"
       fill="#060608"
       id="background" />
    <g
       class="snek"
       id="g10">
      <path
         d="M 17 50 A 33 33 0 0 1 83 50"
         fill="none"
         stroke="#00e5ff"
         stroke-width="9"
         stroke-linecap="butt"
         transform="translate(3,-2)"
         opacity="0.15"
         id="path5" />
      <path
         d="M 83 50 A 33 33 0 0 1 17 50"
         fill="none"
         stroke="#ff2d6b"
         stroke-width="9"
         stroke-linecap="butt"
         transform="translate(-3,2)"
         opacity="0.15"
         id="path6" />
      <path
         d="M 17 50 A 33 33 0 0 1 50 17"
         fill="none"
         stroke="#00e5ff"
         stroke-width="5"
         stroke-linecap="round"
         opacity="0.5"
         id="path7" />
      <path
         d="M 50 17 A 33 33 0 0 1 83 50"
         fill="none"
         stroke="#00e5ff"
         stroke-width="9"
         stroke-linecap="butt"
         id="path8" />
      <path
         d="M 83 50 A 33 33 0 0 1 50 83"
         fill="none"
         stroke="#ff2d6b"
         stroke-width="5"
         stroke-linecap="round"
         opacity="0.5"
         id="path9" />
      <path
         d="M 50 83 A 33 33 0 0 1 17 50"
         fill="none"
         stroke="#ff2d6b"
         stroke-width="9"
         stroke-linecap="butt"
         id="path10" />
    </g>
    <rect
       x="0"
       y="46"
       width="100"
       height="8"
       fill="#060608"
       id="rect10" />
    <rect
       x="0"
       y="47"
       width="44"
       height="2"
       fill="#ffe600"
       opacity="0.8"
       id="rect11" />
    <rect
       x="58"
       y="51"
       width="42"
       height="1.5"
       fill="#ffe600"
       opacity="0.55"
       id="rect12" />
    <g
       class="snek"
       id="g16">
      <rect
         x="40"
         y="49"
         width="22"
         height="1"
         fill="#00e5ff"
         opacity="0.4"
         id="rect13" />
      <polygon
         points="83,43 90,50 83,57 76,50"
         fill="#00e5ff"
         id="polygon13" />
      <circle
         cx="86"
         cy="47"
         r="2"
         fill="#ffe600"
         id="circle13" />
      <polygon
         points="83,43 90,50 83,57 76,50"
         fill="#00e5ff"
         transform="translate(3,-2)"
         opacity="0.2"
         id="polygon14" />
      <polygon
         points="17,57 10,50 17,43 24,50"
         fill="#ff2d6b"
         id="polygon15" />
      <circle
         cx="14"
         cy="53"
         r="2"
         fill="#ffe600"
         id="circle15" />
      <polygon
         points="17,57 10,50 17,43 24,50"
         fill="#ff2d6b"
         transform="translate(-3,2)"
         opacity="0.2"
         id="polygon16" />
    </g>
    <path
       d="m 41.846987,29.99 q 0,0.567 -0.301,0.84 -0.301,0.266 -0.889,0.266 h -0.728 V 33 h -0.609 v -4.9 h 1.323 q 0.595,0 0.896,0.266 0.308,0.259 0.308,0.826 z m -0.609,-0.861 q 0,-0.266 -0.126,-0.385 -0.119,-0.119 -0.385,-0.119 h -0.798 v 1.946 h 0.798 q 0.266,0 0.385,-0.119 0.126,-0.126 0.126,-0.392 z m 6.966007,2.681 q 0,0.595 -0.329,0.896 -0.322,0.294 -0.931,0.294 h -0.175 q -0.609,0 -0.938,-0.294 -0.322,-0.301 -0.322,-0.896 V 28.1 h 0.609 v 3.843 q 0,0.217 0.161,0.371 0.161,0.154 0.42,0.154 h 0.315 q 0.259,0 0.42,-0.154 0.161,-0.154 0.161,-0.371 V 28.1 h 0.609 z M 53.42,31.355 H 52.839 L 52.153,28.604 V 33 h -0.532 v -4.9 h 0.973 l 0.56,2.506 0.567,-2.506 h 0.945 V 33 H 54.12 v -4.396 z m 7.267006,-1.365 q 0,0.567 -0.301,0.84 -0.301,0.266 -0.889,0.266 h -0.728 V 33 h -0.609 v -4.9 h 1.323 q 0.595,0 0.896,0.266 0.308,0.259 0.308,0.826 z m -0.609,-0.861 q 0,-0.266 -0.126,-0.385 -0.119,-0.119 -0.385,-0.119 h -0.798 v 1.946 h 0.798 q 0.266,0 0.385,-0.119 0.126,-0.126 0.126,-0.392 z"
       id="text16"
       style="opacity:0.5625;fill:#00e5ff;filter:url(#chrAber)"
       aria-label="PUMP" />
    <path
       d="M 41.92899,71.97 V 74 h -0.609 v -4.9 h 1.316 q 0.595,0 0.896,0.266 0.308,0.259 0.308,0.826 v 0.672 q 0,0.791 -0.63,0.987 l 0.973,2.149 h -0.665 l -0.903,-2.03 z m 1.302,-1.841 q 0,-0.266 -0.126,-0.385 -0.119,-0.119 -0.385,-0.119 h -0.791 v 1.82 h 0.791 q 0.266,0 0.385,-0.119 0.126,-0.126 0.126,-0.392 z m 8.113007,2.681 q 0,0.595 -0.329,0.896 -0.322,0.294 -0.931,0.294 h -0.175 q -0.609,0 -0.938,-0.294 -0.322,-0.301 -0.322,-0.896 V 69.1 h 0.609 v 3.843 q 0,0.217 0.161,0.371 0.161,0.154 0.42,0.154 h 0.315 q 0.259,0 0.42,-0.154 0.161,-0.154 0.161,-0.371 V 69.1 h 0.609 z M 57.308003,74 q -0.609,0 -0.938,-0.294 -0.322,-0.301 -0.322,-0.896 v -2.52 q 0,-0.595 0.322,-0.889 0.329,-0.301 0.938,-0.301 h 0.987 v 0.532 h -1.057 q -0.259,0 -0.42,0.154 -0.161,0.154 -0.161,0.371 v 2.786 q 0,0.217 0.161,0.371 0.161,0.154 0.42,0.154 h 0.686 v -1.519 h -0.609 v -0.525 h 1.19 V 74 Z"
       id="text17"
       style="opacity:0.5625;fill:#ff2d6b;filter:url(#chrAber)"
       aria-label="RUG" />
    <circle
       cx="50"
       cy="50"
       r="4"
       fill="#ff2d6b"
       id="circle17" />
    <circle
       cx="50"
       cy="50"
       r="4"
       fill="#00e5ff"
       transform="translate(1.5,0)"
       opacity="0.45"
       id="circle18" />
    <g
       id="text1"
       style="opacity:0.901195;fill:#ffff00;stroke:#000000;paint-order:stroke fill markers;filter:url(#filter4)"
       aria-label="FOMONAD">
      <path
         style="font-family:'Bebas Neue';-inkscape-font-specification:'Bebas Neue';fill:#00e5ff"
         d="m 19.6854,42.533335 h 6.20799 v 2.13333 h -3.861327 v 4.159993 h 3.029328 v 2.13333 h -3.029328 v 6.506656 H 19.6854 Z m 10.730647,15.146642 q -1.727998,0 -2.645329,-0.981331 -0.917332,-0.981332 -0.917332,-2.773329 v -7.850655 q 0,-1.791997 0.917332,-2.773329 0.917331,-0.981331 2.645329,-0.981331 1.727997,0 2.645329,0.981331 0.917332,0.981332 0.917332,2.773329 v 7.850655 q 0,1.791997 -0.917332,2.773329 -0.917332,0.981331 -2.645329,0.981331 z m 0,-2.13333 q 1.215998,0 1.215998,-1.471997 v -8.149321 q 0,-1.471997 -1.215998,-1.471997 -1.215998,0 -1.215998,1.471997 v 8.149321 q 0,1.471997 1.215998,1.471997 z"
         id="path1" />
      <path
         style="font-family:'Bebas Neue';-inkscape-font-specification:'Bebas Neue';fill:#ffe600"
         d="m 35.557363,42.533335 h 3.349328 l 1.493331,10.687983 h 0.04267 L 41.93602,42.533335 h 3.349328 V 57.466644 H 43.066685 V 46.159995 h -0.04267 L 41.317354,57.466644 H 39.354691 L 37.648027,46.159995 h -0.04267 v 11.306649 h -2.047997 z m 14.869313,15.146642 q -1.727997,0 -2.645329,-0.981331 -0.917332,-0.981332 -0.917332,-2.773329 v -7.850655 q 0,-1.791997 0.917332,-2.773329 0.917332,-0.981331 2.645329,-0.981331 1.727997,0 2.645329,0.981331 0.917332,0.981332 0.917332,2.773329 v 7.850655 q 0,1.791997 -0.917332,2.773329 -0.917332,0.981331 -2.645329,0.981331 z m 0,-2.13333 q 1.215998,0 1.215998,-1.471997 v -8.149321 q 0,-1.471997 -1.215998,-1.471997 -1.215998,0 -1.215998,1.471997 v 8.149321 q 0,1.471997 1.215998,1.471997 z"
         id="path2" />
      <path
         style="font-family:'Bebas Neue';-inkscape-font-specification:'Bebas Neue';fill:#ff2d6b"
         d="m 55.567995,42.533335 h 2.943995 l 2.282663,8.938652 h 0.04267 v -8.938652 h 2.090663 V 57.466644 H 60.51732 L 57.701325,46.565328 h -0.04267 v 10.901316 h -2.090663 z m 10.922648,0 h 3.178662 l 2.431996,14.933309 h -2.346663 l -0.426666,-2.965328 v 0.04267 H 66.66131 l -0.426666,2.922662 h -2.175997 z m 2.559996,9.983984 -1.045332,-7.381322 h -0.04267 l -1.023999,7.381322 z m 4.181308,-9.983984 h 3.583994 q 1.749331,0 2.623996,0.938665 0.874665,0.938665 0.874665,2.751995 v 7.551988 q 0,1.813331 -0.874665,2.751996 -0.874665,0.938665 -2.623996,0.938665 h -3.583994 z m 3.541328,12.799979 q 0.575999,0 0.874665,-0.341332 0.319999,-0.341333 0.319999,-1.109332 v -7.765321 q 0,-0.767999 -0.319999,-1.109332 -0.298666,-0.341332 -0.874665,-0.341332 H 75.57861 v 10.666649 z"
         id="path3" />
    </g>
    <rect
       x="-500"
       y="-500"
       width="1000"
       height="1000"
       fill="url(#scanlinesPat)"
       id="scanlines_overlay"
       pointer-events="none" />
  </g>
</svg>
