<svg width="256" height="256" viewBox="0 0 256 256" fill="none" xmlns="http://www.w3.org/2000/svg">
  <path d="M128 256C198.693 256 256 198.693 256 128C256 57.3074 198.693 0 128 0C57.3074 0 0 57.3074 0 128C0 198.693 57.3074 256 128 256Z" fill="#007D31"/>
  <path d="M144.241 136.268C144.241 141.777 144.241 147.286 144.241 152.795C123.099 152.795 101.956 152.795 80.8128 152.795C89.7326 169.751 107.448 181.322 127.938 181.322C142.672 181.321 156.027 175.307 165.679 165.634C170.181 170.137 174.684 174.641 179.187 179.144C166.089 192.285 147.973 200.41 127.938 200.411C96.6537 200.411 70.0462 180.566 59.9196 152.795C54.5178 152.795 49.116 152.795 43.7143 152.795C43.7143 147.286 43.7143 141.777 43.7143 136.268C77.2233 136.268 110.732 136.268 144.241 136.268ZM127.938 55.5625C147.909 55.5643 165.981 63.6466 179.08 76.7236C174.577 81.2265 170.075 85.7294 165.572 90.2322C155.92 80.624 142.629 74.6711 127.938 74.6702C107.449 74.6702 89.6878 86.2414 80.768 103.197C101.926 103.197 123.084 103.197 144.241 103.197C144.241 108.7 144.241 114.203 144.241 119.706C110.732 119.706 77.2233 119.706 43.7143 119.706C43.7143 114.197 43.7143 108.688 43.7143 103.179C49.1072 103.179 54.5001 103.179 59.893 103.179C70.0187 75.4071 96.6537 55.5625 127.938 55.5625Z" fill="white"/>
</svg>
