<svg width="256" height="256" viewBox="0 0 256 256" fill="none" xmlns="http://www.w3.org/2000/svg">
  <path d="M251.733 128C251.733 196.335 196.335 251.733 128 251.733C59.665 251.733 4.2666 196.335 4.2666 128C4.2666 59.6651 59.665 4.26672 128 4.26672C196.335 4.26672 251.733 59.6651 251.733 128Z" fill="white"/>
  <path d="M247.467 128C247.467 62.0215 193.979 8.53333 128 8.53333C62.0215 8.53333 8.53333 62.0215 8.53333 128C8.53333 193.979 62.0215 247.467 128 247.467C193.979 247.467 247.467 193.979 247.467 128ZM256 128C256 198.691 198.691 256 128 256C57.3086 256 0 198.691 0 128C0 57.3086 57.3086 0 128 0C198.691 0 256 57.3086 256 128Z" fill="#3A14A3"/>
  <path d="M127.983 81.4336L167.612 121.054H202.641L127.983 46.3872L53.3247 121.054H88.3626L127.983 81.4336ZM167.612 135.765L127.983 175.377L88.3626 135.757H53.3332L128 210.432L202.649 135.765H167.612Z" fill="#3A14A3"/>
</svg>
