<svg width="256" height="256" viewBox="0 0 256 256" fill="none" xmlns="http://www.w3.org/2000/svg">
  <path d="M128 255.759C57.61 255.759 0.553955 198.702 0.553955 128.312C0.553955 57.9225 57.61 0.866455 128 0.866455C198.39 0.866455 255.447 57.9225 255.447 128.312C255.447 198.702 198.39 255.759 128 255.759ZM184.315 64.5894L147.882 100.617C142.581 105.849 135.432 108.783 127.984 108.783C120.536 108.783 113.388 105.849 108.087 100.617L71.6848 64.5894H48.6249L96.5765 112.039C104.953 120.292 116.241 124.919 128 124.919C139.759 124.919 151.047 120.292 159.423 112.039L207.343 64.5894H184.315ZM71.406 196.52L108.118 160.174C113.419 154.942 120.568 152.008 128.016 152.008C135.464 152.008 142.612 154.942 147.914 160.174L184.594 196.52H207.654L159.423 148.783C151.047 140.53 139.759 135.904 128 135.904C116.241 135.904 104.953 140.53 96.5765 148.783L48.3461 196.512L71.406 196.52Z" fill="#E62058"/>
  <path d="M184.912 63.7379H208.069L159.871 111.472C151.445 119.775 140.09 124.429 128.26 124.429C116.431 124.429 105.076 119.775 96.6493 111.472L48.4113 63.7379H71.6089L108.228 99.9815C113.56 105.245 120.752 108.196 128.244 108.196C135.737 108.196 142.928 105.245 148.261 99.9815L184.912 63.7379ZM71.3283 196.46H48.131L96.6493 148.437C105.076 140.134 116.431 135.481 128.26 135.481C140.09 135.481 151.445 140.134 159.871 148.437L208.39 196.452H185.192L148.293 159.896C142.96 154.632 135.769 151.681 128.276 151.681C120.784 151.681 113.593 154.632 108.26 159.896L71.3203 196.46H71.3283Z" fill="white"/>
</svg>
