<svg width="256" height="256" viewBox="0 0 256 256" fill="none" xmlns="http://www.w3.org/2000/svg">
  <mask id="mask0_105_11" style="mask-type:luminance" maskUnits="userSpaceOnUse" x="0" y="0" width="256" height="256">
    <path d="M237.065 0H18.9349C8.47743 0 0 8.47743 0 18.9349V237.065C0 247.523 8.47743 256 18.9349 256H237.065C247.523 256 256 247.523 256 237.065V18.9349C256 8.47743 247.523 0 237.065 0Z" fill="white"/>
  </mask>
  <g mask="url(#mask0_105_11)">
    <path d="M256 0H0V256H256V0Z" fill="#F5F5F5"/>
    <path d="M44.1002 157.701V152.409H43.9551C43.4235 154.245 42.5051 155.792 41.2 157.049C39.9433 158.305 38.1065 158.934 35.6898 158.934C33.8047 158.934 32.1129 158.426 30.6145 157.411C29.1161 156.396 27.8594 154.994 26.8443 153.206C25.8293 151.369 25.0559 149.243 24.5242 146.826C23.9925 144.361 23.7267 141.702 23.7267 138.85C23.7267 136.047 23.9684 133.461 24.4517 131.093C24.9834 128.724 25.7568 126.694 26.7718 125.002C27.7869 123.262 29.0194 121.909 30.4695 120.942C31.9679 119.975 33.708 119.492 35.6898 119.492C37.7198 119.492 39.4358 120.072 40.8375 121.232C42.2392 122.344 43.2059 123.745 43.7376 125.437H43.9551V102.889H52.003V157.701H44.1002ZM44.2452 139.213C44.2452 137.424 44.1002 135.781 43.8101 134.283C43.5685 132.736 43.1818 131.407 42.6501 130.295C42.1667 129.135 41.5142 128.241 40.6925 127.612C39.9191 126.936 39.0249 126.597 38.0099 126.597C36.9465 126.597 36.0281 126.936 35.2547 127.612C34.4814 128.241 33.853 129.135 33.3696 130.295C32.8863 131.407 32.5238 132.736 32.2821 134.283C32.0404 135.781 31.9196 137.424 31.9196 139.213C31.9196 140.953 32.0404 142.596 32.2821 144.143C32.5238 145.642 32.8863 146.971 33.3696 148.131C33.853 149.243 34.4814 150.137 35.2547 150.813C36.0281 151.442 36.9465 151.756 38.0099 151.756C39.0732 151.756 39.9916 151.442 40.765 150.813C41.5384 150.137 42.1667 149.243 42.6501 148.131C43.1818 146.971 43.5685 145.642 43.8101 144.143C44.1002 142.596 44.2452 140.953 44.2452 139.213ZM61.943 141.316C61.943 142.766 62.088 144.143 62.378 145.448C62.668 146.705 63.0788 147.817 63.6105 148.783C64.1906 149.702 64.8673 150.451 65.6406 151.031C66.4623 151.563 67.4049 151.829 68.4683 151.829C69.9667 151.829 71.1509 151.345 72.0209 150.378C72.9393 149.412 73.6643 148.3 74.196 147.043L80.2138 150.523C79.1504 153.085 77.6279 155.139 75.6461 156.686C73.7127 158.185 71.2234 158.934 68.1782 158.934C63.8764 158.934 60.4204 157.242 57.8103 153.859C55.2 150.475 53.8949 145.617 53.8949 139.285C53.8949 136.337 54.2333 133.654 54.91 131.238C55.5868 128.772 56.5535 126.67 57.8103 124.93C59.067 123.19 60.5412 121.86 62.233 120.942C63.973 119.975 65.9065 119.492 68.0332 119.492C70.4017 119.492 72.4076 119.975 74.051 120.942C75.7428 121.909 77.0962 123.238 78.1112 124.93C79.1746 126.573 79.948 128.531 80.4313 130.803C80.9147 133.074 81.1564 135.539 81.1564 138.198V141.316H61.943ZM73.326 135.37C73.326 132.615 72.891 130.392 72.0209 128.7C71.1509 126.96 69.7975 126.09 67.9607 126.09C66.8973 126.09 65.979 126.404 65.2056 127.032C64.4806 127.661 63.8764 128.458 63.393 129.425C62.958 130.343 62.6196 131.358 62.378 132.47C62.1363 133.533 62.0155 134.5 62.0155 135.37H73.326ZM106.043 142.766C106.043 147.889 104.955 151.877 102.78 154.729C100.653 157.58 97.2938 159.006 92.7019 159.006C89.3668 159.006 86.6116 158.112 84.4365 156.324C82.2614 154.487 80.8114 152.046 80.0863 149.001L87.3367 145.883C87.6267 147.14 88.1825 148.3 89.0043 149.363C89.8743 150.378 91.0102 150.886 92.4119 150.886C94.3937 150.886 95.7229 150.088 96.3996 148.493C97.0763 146.898 97.4147 144.723 97.4147 141.968V106.369H106.043V142.766ZM127.505 113.764V157.701H118.949V113.764H109.306V106.369H137.148V113.764H127.505ZM162.008 157.701L154.033 135.805H149.175V157.701H140.764V106.369H155.41C157.537 106.369 159.495 106.659 161.283 107.239C163.071 107.771 164.594 108.641 165.851 109.849C167.156 111.057 168.171 112.58 168.896 114.417C169.621 116.253 169.983 118.453 169.983 121.015C169.983 122.996 169.718 124.761 169.186 126.307C168.702 127.806 168.074 129.087 167.301 130.15C166.527 131.213 165.657 132.083 164.691 132.76C163.772 133.388 162.854 133.823 161.935 134.065L171.143 157.701H162.008ZM161.428 121.45C161.428 119.903 161.21 118.622 160.775 117.607C160.34 116.592 159.76 115.794 159.035 115.214C158.359 114.634 157.585 114.223 156.715 113.982C155.845 113.74 154.975 113.619 154.105 113.619H149.175V129.425H154.105C156.232 129.425 157.972 128.772 159.325 127.467C160.727 126.114 161.428 124.108 161.428 121.45ZM196.642 116.302C194.757 114.03 192.389 112.894 189.537 112.894C188.715 112.894 187.918 113.039 187.144 113.329C186.371 113.571 185.67 113.982 185.042 114.562C184.413 115.142 183.906 115.891 183.519 116.809C183.181 117.728 183.012 118.815 183.012 120.072C183.012 122.247 183.664 123.939 184.969 125.147C186.274 126.307 187.99 127.419 190.117 128.482C191.374 129.111 192.655 129.836 193.96 130.657C195.265 131.479 196.449 132.47 197.512 133.63C198.576 134.79 199.446 136.168 200.122 137.763C200.799 139.358 201.137 141.243 201.137 143.418C201.137 145.932 200.727 148.155 199.905 150.088C199.132 152.022 198.068 153.665 196.715 155.019C195.41 156.324 193.863 157.315 192.075 157.991C190.286 158.668 188.401 159.006 186.419 159.006C183.567 159.006 180.933 158.45 178.516 157.339C176.1 156.227 174.166 154.825 172.716 153.134L177.429 146.753C178.541 148.107 179.87 149.17 181.417 149.943C183.012 150.717 184.631 151.103 186.274 151.103C188.111 151.103 189.634 150.475 190.842 149.218C192.05 147.962 192.655 146.197 192.655 143.926C192.655 141.702 191.93 139.938 190.479 138.633C189.029 137.328 187.193 136.119 184.969 135.008C183.567 134.331 182.238 133.582 180.982 132.76C179.773 131.938 178.686 130.972 177.719 129.86C176.8 128.7 176.051 127.371 175.471 125.872C174.94 124.326 174.674 122.489 174.674 120.362C174.674 117.704 175.085 115.432 175.906 113.547C176.776 111.613 177.888 110.018 179.241 108.761C180.643 107.505 182.214 106.586 183.954 106.006C185.694 105.378 187.458 105.064 189.247 105.064C191.857 105.064 194.177 105.499 196.207 106.369C198.286 107.191 200.026 108.423 201.427 110.067L196.642 116.302ZM222.49 138.053V157.701H213.934V138.053L201.101 106.369H210.527L218.212 129.28L218.43 129.135L226.26 106.369H235.468L222.49 138.053Z" fill="#252B34"/>
  </g>
</svg>
